<svg width="379" height="319" viewBox="0 0 379 319" fill="none" xmlns="http://www.w3.org/2000/svg">
<path fill-rule="evenodd" clip-rule="evenodd" d="M238 282C315.872 282 379 218.872 379 141C379 63.1278 315.872 0 238 0C160.128 0 97 63.1278 97 141C97 218.872 160.128 282 238 282ZM238 235C289.915 235 332 192.915 332 141C332 89.0853 289.915 47.0001 238 47.0001C186.085 47.0001 144 89.0853 144 141C144 192.915 186.085 235 238 235Z" fill="url(#paint0_linear_70_4)" fill-opacity="0.4"/>
<path fill-rule="evenodd" clip-rule="evenodd" d="M229.846 210.003C229.689 213.053 229.414 216.071 229.024 219.054L99.9459 89.9765C102.929 89.5865 105.947 89.3108 108.997 89.154L229.846 210.003ZM89.3079 91.8807C92.3936 91.1766 95.5266 90.5965 98.7013 90.1461L228.854 220.299C228.403 223.473 227.823 226.606 227.119 229.692L89.3079 91.8807ZM221.374 247.778C222.346 245.419 223.241 243.021 224.058 240.587L78.413 94.9423C75.9788 95.7586 73.5809 96.6541 71.2225 97.6258L221.374 247.778ZM70.2248 98.0423C67.6468 99.1331 65.1169 100.315 62.639 101.585L217.415 256.361C218.685 253.883 219.867 251.353 220.958 248.775L70.2248 98.0423ZM227.789 181.447C226.881 176.88 225.703 172.41 224.271 168.055L150.945 94.7292C146.59 93.2974 142.12 92.1187 137.553 91.2105L227.789 181.447ZM135.805 90.8771C131.637 90.1155 127.391 89.5786 123.079 89.2794L229.721 195.921C229.421 191.609 228.884 187.363 228.123 183.195L135.805 90.8771ZM230 204C230 205.558 229.969 207.108 229.908 208.65L110.35 89.0923C111.892 89.031 113.442 89 115 89C117.205 89 119.396 89.0621 121.57 89.1845L229.815 197.43C229.938 199.604 230 201.795 230 204ZM226.851 230.839C226.148 233.779 225.333 236.676 224.408 239.524L79.4764 94.5915C82.3243 93.6675 85.221 92.8515 88.1615 92.1486L226.851 230.839ZM213.693 144.935C217.647 151.527 220.959 158.549 223.543 165.913L153.087 95.457C160.451 98.0409 167.473 101.353 174.065 105.307L213.693 144.935ZM61.7074 102.067C59.2931 103.332 56.9293 104.68 54.6198 106.108L212.892 264.38C214.32 262.071 215.668 259.707 216.933 257.293L61.7074 102.067ZM212.349 265.251L53.7492 106.651C51.7409 107.917 49.7746 109.244 47.8527 110.629L208.371 271.147C209.756 269.225 211.083 267.259 212.349 265.251ZM207.776 271.966L47.0339 111.224C44.9022 112.788 42.8265 114.424 40.8102 116.128L202.872 278.19C204.576 276.174 206.212 274.098 207.776 271.966ZM177.851 107.679C191.187 116.399 202.601 127.813 211.321 141.149L177.851 107.679ZM202.221 278.953L40.0468 116.779C38.0555 118.492 36.1236 120.272 34.2544 122.115L196.885 284.746C198.728 282.876 200.508 280.944 202.221 278.953ZM196.18 285.455C194.531 287.098 192.832 288.692 191.086 290.234L28.7659 127.914C30.3077 126.168 31.9017 124.469 33.5455 122.82L196.18 285.455ZM184.181 295.872C186.289 294.282 188.34 292.622 190.331 290.894L28.1059 128.669C26.3781 130.66 24.7176 132.711 23.128 134.819L184.181 295.872ZM183.372 296.477L22.5231 135.628C20.9372 137.77 19.4239 139.968 17.9869 142.22L176.78 301.013C179.032 299.576 181.23 298.063 183.372 296.477ZM168.754 305.69C166.306 306.987 163.805 308.198 161.255 309.319L9.681 157.745C10.8023 155.195 12.0134 152.694 13.3104 150.246L168.754 305.69ZM169.675 305.196L13.8036 149.325C14.9517 147.204 16.1645 145.124 17.4393 143.087L175.913 301.561C173.876 302.836 171.796 304.048 169.675 305.196ZM160.269 309.747L9.25283 158.731C8.1256 161.36 7.09359 164.041 6.16115 166.767L152.233 312.839C154.96 311.906 157.64 310.874 160.269 309.747ZM151.175 313.195C148.666 314.026 146.119 314.772 143.538 315.431L3.56856 175.462C4.22779 172.881 4.9744 170.334 5.80504 167.825L151.175 313.195ZM133.141 317.577C136.273 317.081 139.364 316.458 142.406 315.714L3.2858 176.594C2.54193 179.636 1.91912 182.727 1.42276 185.859L133.141 317.577ZM0.199033 197.177C0.398305 193.771 0.745806 190.405 1.23518 187.085L131.915 317.765C128.595 318.254 125.229 318.602 121.823 318.801L0.199033 197.177ZM0.12823 198.521L120.479 318.872C118.663 318.957 116.837 319 115 319C113.544 319 112.095 318.973 110.653 318.919L0.0806469 208.347C0.0270406 206.905 0 205.456 0 204C0 202.163 0.0430615 200.337 0.12823 198.521ZM0.145002 209.826L109.174 318.855C104.97 318.645 100.825 318.21 96.7513 317.56L1.43985 222.249C0.790356 218.175 0.35478 214.03 0.145002 209.826ZM1.72367 223.947L95.0533 317.276C90.0261 316.397 85.1111 315.192 80.331 313.682L5.31795 238.669C3.80846 233.889 2.60282 228.974 1.72367 223.947ZM6.00343 240.769C8.38723 247.838 11.4395 254.599 15.085 260.978L58.0217 303.915C64.4006 307.561 71.1622 310.613 78.2313 312.997L6.00343 240.769ZM17.1644 264.472C26.5542 279.631 39.3689 292.446 54.5281 301.836L17.1644 264.472Z" fill="url(#paint1_linear_70_4)" fill-opacity="0.4"/>
<defs>
<linearGradient id="paint0_linear_70_4" x1="153.895" y1="30.921" x2="318.395" y2="256.645" gradientUnits="userSpaceOnUse">
<stop stop-color="#ED7B50"/>
<stop offset="0.541667" stop-color="#488AEA"/>
<stop offset="1" stop-color="#2C2C2C"/>
</linearGradient>
<linearGradient id="paint1_linear_70_4" x1="46.4035" y1="114.219" x2="180.57" y2="298.32" gradientUnits="userSpaceOnUse">
<stop stop-color="#ED7B50"/>
<stop offset="0.541667" stop-color="#488AEA"/>
<stop offset="1" stop-color="#2C2C2C"/>
</linearGradient>
</defs>
</svg>
